<svg xmlns="http://www.w3.org/2000/svg" width="900" height="520" viewBox="0 0 900 520">
<rect width="100%" height="100%" fill="white"/>
<text x="450" y="30" text-anchor="middle" font-family="Arial,sans-serif" font-size="22" font-weight="700">VTMS-V1 vs KIT Real-World Warm-Up Trace</text>
<line x1="80" y1="450" x2="870" y2="450" stroke="#333"/>
<line x1="80" y1="55" x2="80" y2="450" stroke="#333"/>
<line x1="80.0" y1="55" x2="80.0" y2="450" stroke="#ddd"/>
<text x="80.0" y="475" text-anchor="middle" font-family="Arial,sans-serif" font-size="13">0</text>
<line x1="238.0" y1="55" x2="238.0" y2="450" stroke="#ddd"/>
<text x="238.0" y="475" text-anchor="middle" font-family="Arial,sans-serif" font-size="13">204</text>
<line x1="396.0" y1="55" x2="396.0" y2="450" stroke="#ddd"/>
<text x="396.0" y="475" text-anchor="middle" font-family="Arial,sans-serif" font-size="13">408</text>
<line x1="554.0" y1="55" x2="554.0" y2="450" stroke="#ddd"/>
<text x="554.0" y="475" text-anchor="middle" font-family="Arial,sans-serif" font-size="13">612</text>
<line x1="712.0" y1="55" x2="712.0" y2="450" stroke="#ddd"/>
<text x="712.0" y="475" text-anchor="middle" font-family="Arial,sans-serif" font-size="13">816</text>
<line x1="870.0" y1="55" x2="870.0" y2="450" stroke="#ddd"/>
<text x="870.0" y="475" text-anchor="middle" font-family="Arial,sans-serif" font-size="13">1020</text>
<line x1="80" y1="450.0" x2="870" y2="450.0" stroke="#ddd"/>
<text x="70" y="455.0" text-anchor="end" font-family="Arial,sans-serif" font-size="13">-9</text>
<line x1="80" y1="371.0" x2="870" y2="371.0" stroke="#ddd"/>
<text x="70" y="376.0" text-anchor="end" font-family="Arial,sans-serif" font-size="13">17</text>
<line x1="80" y1="292.0" x2="870" y2="292.0" stroke="#ddd"/>
<text x="70" y="297.0" text-anchor="end" font-family="Arial,sans-serif" font-size="13">42</text>
<line x1="80" y1="213.0" x2="870" y2="213.0" stroke="#ddd"/>
<text x="70" y="218.0" text-anchor="end" font-family="Arial,sans-serif" font-size="13">68</text>
<line x1="80" y1="134.0" x2="870" y2="134.0" stroke="#ddd"/>
<text x="70" y="139.0" text-anchor="end" font-family="Arial,sans-serif" font-size="13">93</text>
<line x1="80" y1="55.0" x2="870" y2="55.0" stroke="#ddd"/>
<text x="70" y="60.0" text-anchor="end" font-family="Arial,sans-serif" font-size="13">119</text>
<polyline points="80.0,367.0 126.5,345.4 172.9,323.7 219.4,308.2 265.9,298.9 312.4,283.5 358.8,271.1 405.3,258.7 451.8,240.1 498.2,230.8 544.7,221.5 591.2,206.1 637.6,190.6 684.1,178.2 730.6,156.5 777.1,144.2 823.5,141.1 870.0,144.2" fill="none" stroke="#1f77b4" stroke-width="3"/>
<circle cx="80.0" cy="367.0" r="3" fill="#1f77b4"/><circle cx="126.5" cy="345.4" r="3" fill="#1f77b4"/><circle cx="172.9" cy="323.7" r="3" fill="#1f77b4"/><circle cx="219.4" cy="308.2" r="3" fill="#1f77b4"/><circle cx="265.9" cy="298.9" r="3" fill="#1f77b4"/><circle cx="312.4" cy="283.5" r="3" fill="#1f77b4"/><circle cx="358.8" cy="271.1" r="3" fill="#1f77b4"/><circle cx="405.3" cy="258.7" r="3" fill="#1f77b4"/><circle cx="451.8" cy="240.1" r="3" fill="#1f77b4"/><circle cx="498.2" cy="230.8" r="3" fill="#1f77b4"/><circle cx="544.7" cy="221.5" r="3" fill="#1f77b4"/><circle cx="591.2" cy="206.1" r="3" fill="#1f77b4"/><circle cx="637.6" cy="190.6" r="3" fill="#1f77b4"/><circle cx="684.1" cy="178.2" r="3" fill="#1f77b4"/><circle cx="730.6" cy="156.5" r="3" fill="#1f77b4"/><circle cx="777.1" cy="144.2" r="3" fill="#1f77b4"/><circle cx="823.5" cy="141.1" r="3" fill="#1f77b4"/><circle cx="870.0" cy="144.2" r="3" fill="#1f77b4"/>
<polyline points="80.0,367.0 126.5,339.1 172.9,304.0 219.4,266.9 265.9,225.7 312.4,167.7 358.8,145.8 405.3,146.9 451.8,145.5 498.2,145.9 544.7,146.3 591.2,141.5 637.6,138.7 684.1,145.9 730.6,144.5 777.1,147.3 823.5,145.7 870.0,146.6" fill="none" stroke="#ff7f0e" stroke-width="3"/>
<circle cx="80.0" cy="367.0" r="3" fill="#ff7f0e"/><circle cx="126.5" cy="339.1" r="3" fill="#ff7f0e"/><circle cx="172.9" cy="304.0" r="3" fill="#ff7f0e"/><circle cx="219.4" cy="266.9" r="3" fill="#ff7f0e"/><circle cx="265.9" cy="225.7" r="3" fill="#ff7f0e"/><circle cx="312.4" cy="167.7" r="3" fill="#ff7f0e"/><circle cx="358.8" cy="145.8" r="3" fill="#ff7f0e"/><circle cx="405.3" cy="146.9" r="3" fill="#ff7f0e"/><circle cx="451.8" cy="145.5" r="3" fill="#ff7f0e"/><circle cx="498.2" cy="145.9" r="3" fill="#ff7f0e"/><circle cx="544.7" cy="146.3" r="3" fill="#ff7f0e"/><circle cx="591.2" cy="141.5" r="3" fill="#ff7f0e"/><circle cx="637.6" cy="138.7" r="3" fill="#ff7f0e"/><circle cx="684.1" cy="145.9" r="3" fill="#ff7f0e"/><circle cx="730.6" cy="144.5" r="3" fill="#ff7f0e"/><circle cx="777.1" cy="147.3" r="3" fill="#ff7f0e"/><circle cx="823.5" cy="145.7" r="3" fill="#ff7f0e"/><circle cx="870.0" cy="146.6" r="3" fill="#ff7f0e"/>
<text x="475.0" y="500" text-anchor="middle" font-family="Arial,sans-serif" font-size="15">Time (s)</text>
<text x="20" y="252.5" text-anchor="middle" transform="rotate(-90 20 252.5)" font-family="Arial,sans-serif" font-size="15">Coolant temperature (°C)</text>
<line x1="95" y1="73" x2="123" y2="73" stroke="#1f77b4" stroke-width="3"/><text x="133" y="78" font-family="Arial,sans-serif" font-size="13">Measured KIT coolant</text>
<line x1="95" y1="97" x2="123" y2="97" stroke="#ff7f0e" stroke-width="3"/><text x="133" y="102" font-family="Arial,sans-serif" font-size="13">VTMS-V1 prediction</text>
</svg>