<svg xmlns="http://www.w3.org/2000/svg" width="900" height="520" viewBox="0 0 900 520">
<rect width="100%" height="100%" fill="white"/>
<text x="450" y="30" text-anchor="middle" font-family="Arial,sans-serif" font-size="22" font-weight="700">VTMS-V1 Residual: Predicted Minus Measured</text>
<line x1="80" y1="450" x2="870" y2="450" stroke="#333"/>
<line x1="80" y1="55" x2="80" y2="450" stroke="#333"/>
<line x1="80.0" y1="55" x2="80.0" y2="450" stroke="#ddd"/><text x="80.0" y="475" text-anchor="middle" font-family="Arial,sans-serif" font-size="13">0</text>
<line x1="238.0" y1="55" x2="238.0" y2="450" stroke="#ddd"/><text x="238.0" y="475" text-anchor="middle" font-family="Arial,sans-serif" font-size="13">204</text>
<line x1="396.0" y1="55" x2="396.0" y2="450" stroke="#ddd"/><text x="396.0" y="475" text-anchor="middle" font-family="Arial,sans-serif" font-size="13">408</text>
<line x1="554.0" y1="55" x2="554.0" y2="450" stroke="#ddd"/><text x="554.0" y="475" text-anchor="middle" font-family="Arial,sans-serif" font-size="13">612</text>
<line x1="712.0" y1="55" x2="712.0" y2="450" stroke="#ddd"/><text x="712.0" y="475" text-anchor="middle" font-family="Arial,sans-serif" font-size="13">816</text>
<line x1="870.0" y1="55" x2="870.0" y2="450" stroke="#ddd"/><text x="870.0" y="475" text-anchor="middle" font-family="Arial,sans-serif" font-size="13">1020</text>
<line x1="80" y1="450.0" x2="870" y2="450.0" stroke="#ddd"/><text x="70" y="455.0" text-anchor="end" font-family="Arial,sans-serif" font-size="13">-9</text>
<line x1="80" y1="371.0" x2="870" y2="371.0" stroke="#ddd"/><text x="70" y="376.0" text-anchor="end" font-family="Arial,sans-serif" font-size="13">3</text>
<line x1="80" y1="292.0" x2="870" y2="292.0" stroke="#ddd"/><text x="70" y="297.0" text-anchor="end" font-family="Arial,sans-serif" font-size="13">14</text>
<line x1="80" y1="213.0" x2="870" y2="213.0" stroke="#ddd"/><text x="70" y="218.0" text-anchor="end" font-family="Arial,sans-serif" font-size="13">26</text>
<line x1="80" y1="134.0" x2="870" y2="134.0" stroke="#ddd"/><text x="70" y="139.0" text-anchor="end" font-family="Arial,sans-serif" font-size="13">37</text>
<line x1="80" y1="55.0" x2="870" y2="55.0" stroke="#ddd"/><text x="70" y="60.0" text-anchor="end" font-family="Arial,sans-serif" font-size="13">49</text>
<polyline points="80.0,388.7 126.5,374.8 172.9,345.4 219.4,297.8 265.9,227.6 312.4,134.0 358.8,113.1 405.3,142.8 451.8,180.4 498.2,202.0 544.7,223.1 591.2,246.7 637.6,274.6 684.1,317.7 730.6,362.2 777.1,395.6 823.5,398.9 870.0,394.1" fill="none" stroke="#1f77b4" stroke-width="3"/>
<text x="475.0" y="500" text-anchor="middle" font-family="Arial,sans-serif" font-size="15">Time (s)</text>
<text x="20" y="252.5" text-anchor="middle" transform="rotate(-90 20 252.5)" font-family="Arial,sans-serif" font-size="15">Residual (°C)</text>
<line x1="95" y1="73" x2="123" y2="73" stroke="#1f77b4" stroke-width="3"/><text x="133" y="78" font-family="Arial,sans-serif" font-size="13">Prediction residual</text>
</svg>